<svg xmlns="http://www.w3.org/2000/svg" viewBox="0 0 100 100">
  <defs>
    <linearGradient id="grad" x1="0%" y1="0%" x2="100%" y2="100%">
      <stop offset="0%" stop-color="#818cf8" />
      <stop offset="100%" stop-color="#4f46e5" />
    </linearGradient>
  </defs>
  <rect width="100" height="100" rx="24" fill="url(#grad)"/>
  <path d="M32 32h36c2 0 4 2 4 4s-2 4-4 4H32c-2 0-4-2-4-4s2-4 4-4zm0 16h36c2 0 4 2 4 4s-2 4-4 4H32c-2 0-4-2-4-4s2-4 4-4zm0 16h24c2 0 4 2 4 4s-2 4-4 4H32c-2 0-4-2-4-4s2-4 4-4z" fill="#ffffff"/>
  <circle cx="72" cy="72" r="10" fill="#f43f5e"/>
</svg>
